<svg width="272" height="271" viewBox="0 0 272 271" fill="none" xmlns="http://www.w3.org/2000/svg">
<path d="M136 266.661C209.562 266.661 269.195 207.053 269.195 133.522C269.195 59.9915 209.562 0.38324 136 0.38324C62.4385 0.38324 2.80493 59.9915 2.80493 133.522C2.80493 207.053 62.4385 266.661 136 266.661Z" fill="#0044CC"/>
<path d="M136 270.617C61.5009 270.617 0.883789 210.025 0.883789 135.558C0.883789 61.0899 61.5009 0.487 136 0.487C210.499 0.487 271.116 61.0784 271.116 135.546C271.116 210.014 210.499 270.605 136 270.605V270.617ZM136 7.59658C65.4231 7.59658 7.99638 64.999 7.99638 135.558C7.99638 206.116 65.4231 263.519 136.012 263.519C206.6 263.519 264.027 206.116 264.027 135.558C264.027 64.999 206.589 7.59658 136 7.59658Z" fill="#F8F4EA"/>
<path d="M90.7975 217.327C90.7975 194.375 112.799 191.986 131.461 141.282C93.176 160.885 87.9159 178.59 63.5136 190.546C57.7617 193.415 53.9424 194.375 51.5411 194.375C40.552 194.375 35.269 186.717 35.269 177.63C35.269 167.103 43.3994 159.456 53.9424 155.627C74.0338 147.969 91.7352 152.278 129.539 136.013C112.787 125.977 98.9164 123.577 87.4357 121.188C72.593 119.279 59.6714 115.93 59.6714 102.054C59.6714 87.2285 74.0224 76.2327 87.4357 76.2327C99.8655 76.2327 107.527 89.6289 111.838 100.145C115.657 109.232 120.917 119.279 134.331 130.755C140.551 106.363 136.24 93.4466 136.24 80.0618C136.24 57.5786 144.851 37.4958 164.954 37.4958C175.966 37.4958 181.226 43.7138 181.226 53.7609C181.226 76.7242 153.473 93.9381 140.563 130.766C172.135 114.021 182.175 99.676 197.018 89.6403C205.148 82.4622 212.318 76.2441 221.42 76.2441C231.46 76.2441 236.72 83.4223 236.72 92.0292C236.72 106.854 224.29 114.512 205.148 117.37C188.876 123.108 174.525 121.199 142.461 136.024C157.761 145.122 169.734 147.98 180.254 149.42C196.046 151.329 212.318 154.69 212.318 169.023C212.318 174.292 209.928 180.03 206.097 184.328C200.837 190.546 193.175 194.855 186.006 194.855C172.615 194.855 164.954 181.939 160.643 171.423C156.332 162.816 151.54 152.301 137.681 141.773C133.37 158.039 133.37 168.074 133.37 176.201C133.37 188.637 135.772 197.724 134.331 207.771C132.421 223.065 121.409 233.592 106.578 233.592C97.4756 233.592 90.7861 226.414 90.7861 217.327H90.7975Z" fill="#F8F4EA"/>
</svg>
