<?xml version="1.0" encoding="UTF-8"?>
<svg id="Layer_2" data-name="Layer 2" xmlns="http://www.w3.org/2000/svg" viewBox="0 0 458.66 369.66">
  <defs>
    <style>
      .cls-1 {
        fill: #fff;
      }
    </style>
  </defs>
  <g id="fWFhm7FgSx">
    <g id="cross-mark">
      <path class="cls-1" d="M291.26,10.59c-1.2-1.1-2.7-1.8-4.3-1.8l-52-.7c-1.6,0-3.1.7-4.3,1.8-1.2,1.1-1.8,2.7-1.8,4.3v33.5c0,3.4,2.8,6.1,6.1,6.1h45.1l6.7,8.8c.6.7,1.5,1.2,2.5,1.2.4,0,.7-.1.9-.3,1.2-.4,2.1-1.6,2.1-2.9l.7-45.7c0-1.6-.6-3.2-1.7-4.3ZM273.26,39.89c-1.2,0-2.3-.3-3.3-.9-2.89-2.03-5.78-4.03-8.68-6.01-2.68,3.11-5.28,6.29-7.82,9.51-.8,1-5.3-.4-4.7-1.2,2.84-3.71,5.8-7.31,8.87-10.81-3.31-2.24-6.63-4.46-9.97-6.69-.9-.6.7-.7,1-.7,1.2,0,2.3.3,3.3.9,2.39,1.59,4.78,3.19,7.17,4.79,3.17-3.56,6.46-7.02,9.83-10.39.6-.7,2.4-.2,3.2,0,.3.1,2.1.6,1.5,1.2-3.76,3.76-7.38,7.65-10.88,11.65,3.86,2.62,7.7,5.26,11.48,7.95.9.7-.6.7-1,.7Z"/>
    </g>
    <g id="device">
      <g id="device-2">
        <path class="cls-1" d="M453.86,24.99s2.7,11.9,2.7,15.3-15.1,107.8-22,110.4h0l19.3-125.7h0Z"/>
        <path class="cls-1" d="M458.66,40.09c-.1,2-.4,4-.7,6-1.2,9-2.6,18-4,26.9-1.9,11.8-3.8,23.6-6,35.4-1.9,10.2-3.8,20.4-6.5,30.4-.7,3.1-1.7,6.2-3,9.2-.4.9-.9,1.8-1.5,2.5-1.4,1.5-3.4,1.9-5.2,2.6l-.04-.09c-.63.21-2.47.67-2.76-.21-.3-.9,1.2-1.8,1.9-2l1-.4.21-.09c.18-1.3.53-2.64.69-3.91l1.6-10.3,4.8-31.4,5.6-36.4,4.6-30,1.9-12.5c.04-.35.28-.68.62-.96-.27.33-.4.69-.32,1.06.4,1.9.8,3.9,1.2,5.8.49,2.04.89,4.03,1.14,6.08l1.26-8.08c.2-1.6.6-3.3.8-4.9v-.2c.24-1.35-2.73-.87-4.07.23,1.03-1.26,3.99-2,4.07-.73.2.5.3,1.1.4,1.7.7,3,1.3,6.1,1.8,9.1.3,1.7.5,3.5.5,5.2Z"/>
        <path class="cls-1" d="M455.96,24.59v.2c-.2,1.6-.6,3.3-.8,4.9l-1.26,8.08c-.25-2.05-.65-4.04-1.14-6.08-.4-1.9-.8-3.9-1.2-5.8-.08-.37.05-.73.32-1.06t.01-.01c1.34-1.1,4.31-1.58,4.07-.23Z"/>
        <path class="cls-1" d="M422.86,161.99c2.6.1,5.2.3,7.7.3h.2l-3.2-3.3-.7,2.2c-.4,1.5,3.6,4.4,4,2.8l.5-2.1c.3-1.4-1.9-3.3-3.2-3.3l-5.3-.2v3.6Z"/>
        <path class="cls-1" d="M233.42,155.12h-.01s-.01.01-.01.01c-.02-.05-.04-.09-.04-.14.02.05.04.09.06.13Z"/>
        <path class="cls-1" d="M233.48,155.28h0s-.01,0-.01,0v-.03s0,.02.01.03Z"/>
        <path class="cls-1" d="M229.65,152.15c-.14.12-.27.25-.38.38.02-.2.19-.32.38-.38Z"/>
        <path class="cls-1" d="M434.66,151.89c.7-3.9,1.5-7.8,2.2-11.7,1.8-9.4,3.5-18.9,5.2-28.4,2.1-11.7,4.2-23.3,6.3-35,1.9-10.5,3.7-21.1,5.4-31.7,1-6,2.2-12.2,2.5-18.3.1-.6.1-1.2,0-1.7-.3-1.2-1.5-1.7-2.6-2-1.7-.5-3.5-.8-5.2-1.2-7.9-1.7-15.8-3.1-23.7-4.6-11.3-2.1-22.7-4.2-34-6.2-11.7-2.1-23.5-4.1-35.3-6-9.3-1.5-18.6-3-28-4.2-2.7-.3-5.4-.7-8.1-.8-1.6-.1-3.9-.4-5,1.1-1.2,1.6-1.4,4.3-1.7,6.2-.7,3.9-1.1,7.9-1.5,11.9-1.2,11.4-2,22.8-2.7,34.2-.7,11.6-1.3,23.2-1.7,34.9-.1,4.1-.2,8.3-.2,12.5-.1,2.2,0,4.4.3,6.5.4,1.8,2.2,2.6,3.8,3.4,2.5,1.3,5,2.3,7.5,3.4,8.7,3.6,17.6,6.9,26.4,10.2,11.1,4.1,22.3,8.1,33.5,12,10.5,3.7,21.1,7.3,31.7,10.7,6.5,2.1,13,4.3,19.6,5.8,1.3.3,4.8,1.2,5.3-.9.5-2.2-4.4-3.4-4.9-1.2.1-.5,1.6-1.4,1.8-1,0,0-.6-.1-.7-.1.6-.1.6.1.1,0l-.6-.1-1.4-.3c-2.9-.7-5.7-1.5-8.5-2.4-9-2.7-18-5.7-27-8.8l-2-.7-.9-.3c.4.1-.6-.2-.7-.3l-4.1-1.6c-2.7-.9-5.5-1.9-8.2-2.9-5.6-2-11.2-4-16.9-6-10.1-3.6-20.2-7.2-30.2-11.1-6.2-2.2-12.3-4.8-18.2-7.7l-.2-.1c-.4-.2.5.3.2.1-.1-.1-.3-.2-.5-.3-.3-.2-.9-.8-.2-.1-.2-.3.2.3.2.5,0-.3-.1-.5-.1-.8-.2-2.5-.3-5-.2-7.4,0-9.7.5-19.4,1-29.1.6-12,1.3-23.9,2.3-35.9.7-8.9,1.4-17.9,3-26.7.2-1.2.5-2.4.8-3.5.1-.4.2-.7.4-1.1-.2.6-.1.2,0,0,.3-.3.1-.1-.1.1.2-.2-1,.5-.5.2.1-.1.2,0,.3,0,.5-.1-.7,0-.1,0,.9,0,1.8,0,2.6.1,3,.2,5.9.6,8.8,1,2,.2,3.9.5,5.8.8l1.5.2.8.1.5.1,3.4.5c10.9,1.7,21.7,3.5,32.6,5.3,11.7,2,23.4,4.1,35.1,6.2,9.7,1.8,19.4,3.6,29,5.5,4.8,1,9.6,2.1,14.4,3.1.4.1-.8-.3-.4-.1s-.5-.3-.6-.4-.7-.8-.6-.9v.5c0,.4,0,.3,0,0,0,.4,0,.7-.1,1.1-.2,2.6-.6,5.1-1,7.7-1.3,9-2.9,18-4.4,26.9-2,11.4-4,22.8-6.1,34.2-1.9,10.7-3.9,21.3-5.9,32-1.3,6.8-2.5,13.6-3.8,20.4-.2,1-.4,1.9-.5,2.8-.2,2.5,4.6,3.6,5,1.4Z"/>
        <path class="cls-1" d="M429.16,139.49c.5-3.4,1.1-6.8,1.6-10.3,1.3-8.2,2.5-16.3,3.8-24.5,1.6-10,3.1-19.9,4.6-29.9,1.3-8.6,2.6-17.2,3.9-25.8.4-3,.8-5.9,1.2-8.9.3-1.4.4-2.8.5-4.3-.1-1-1.1-1.1-1.9-1.4-1.9-.6-3.9-1-5.8-1.5-7.2-1.7-14.5-3.3-21.7-4.8-9.5-2-19.1-3.9-28.7-5.8s-19.3-3.7-29.1-5.5c-7.4-1.3-14.8-2.7-22.3-3.8-2.1-.3-4.2-.6-6.4-.8s-4.2.1-5.5,2.2c-.7,1.5-1.1,3.1-1.3,4.8-.6,3.3-1,6.6-1.5,9.8-1.2,9.5-2.2,19-3.2,28.5-.9,9.8-1.8,19.5-2.5,29.3-.2,3.5-.5,7.1-.5,10.6-.2,1.9-.1,3.8.1,5.7.2,1.2,1.4,1.6,2.4,2.2,2.1,1,4.2,1.9,6.4,2.8,7.5,3,15,5.6,22.6,8.2,9.7,3.4,19.4,6.7,29.1,9.9,9.2,3.1,18.5,6.1,27.8,9,6.2,2,12.5,4,18.8,5.7,1.3.4,2.6.8,4,1,1.2-.1,2.3-.6,3-1.6.5-.6,1-1.7-.2-1.8-.2,0-.3,0-.5-.1l-.3-.1c-.3-.1.3.1.1,0l-.2-.1-2.5-.7c-2.6-.7-5.3-1.5-7.9-2.3-8-2.4-16.1-5-24.1-7.6-9.7-3.1-19.3-6.3-29-9.6-8.9-3-17.8-6.1-26.6-9.3-5.6-1.9-11.1-4.1-16.5-6.5-.6-.3-1.1-.6-1.7-.9q-.2-.1,0,0c-.1,0-.1-.1-.2-.2s-.1-.1-.1-.1c.2.3,0,.2,0,0-.2-1.8-.2-3.7-.1-5.5.2-8,.9-16.1,1.5-24.1.8-10.1,1.8-20.1,2.9-30.2.9-7.7,1.7-15.4,3-23,.2-1,.4-2.1.6-3.1.1-.3.2-.7.3-1,0-.1.1-.2.1-.4.1-.4-.2.4-.1.1-.7.8-1.6,1.4-2.5,1.8.4-.1-.5,0,.1,0s1.3.1,2,.1c5.7.6,11.5,1.6,17.1,2.6,8.9,1.5,17.7,3.2,26.6,4.8,9.8,1.9,19.6,3.8,29.3,5.8,8.5,1.7,17,3.5,25.4,5.3,4.9,1.1,9.4,1.9,14.2,3.4.4.2.7.3,1.1.4-.1,0-.2-.3-.2-.3v.4c-.1,1.6-.4,3.2-.6,4.8-.1,1.1-.3,2.4-.5,3.8-.2,1.7-.5,3.3-.7,5-.6,4-1.2,8-1.8,12.1-1.5,9.5-2.9,19-4.4,28.6-1.4,9.3-2.9,18.5-4.3,27.8-.9,5.9-1.9,11.9-2.8,17.9l-.4,2.5c-.1,2.5,4.3.4,4.5-1.1Z"/>
        <path class="cls-1" d="M430.47,162.74c-.06-.09-.13-.19-.2-.28-.05-.06-.09-.12-.15-.18-.08-.11-.18-.21-.28-.31s-.21-.2-.32-.3c-.11-.1-.22-.19-.33-.27-.08-.06-.17-.12-.25-.17-.07-.05-.14-.1-.22-.14-.07-.04-.14-.08-.22-.12-.11-.06-.23-.11-.34-.15-.1-.04-.2-.07-.3-.1h-.02c-.15-.03-.29-.04-.41-.02-.05,0-.09.01-.13.02-.04.01-.08.02-.11.05-.03.01-.05.02-.07.04-.06.04-.11.09-.15.15-.05.06-.08.14-.11.23-.07.29-.15.57-.23.85l-.67-.25-1.37-.52c-.32.25-.62.48-.95.76h-.02c-1.87,1.46-3.77,2.93-5.66,4.36-7.4,5.8-14.9,11.5-22.3,17.1-8.1,6.1-16.2,12.2-24.4,18.1-3.2,2.3-6.4,4.5-9.7,6.7-1.2.8-2.4,1.6-3.7,2.3-.5.3-1,.6-1.5.8l-.13.09s-.02-.01-.07,0c-.3.1-.4.2-.6.3-.09.05-.27.09-.45.14l.25.06c.6.2-.7,0,0,0h-.22s-.31.03-.44.08c.08-.05.25-.1.41-.14l-.55-.14c-1.9-.6-3.7-1.4-5.5-2.1-6.6-2.7-13.1-5.6-19.5-8.5-8.9-4-17.7-8.1-26.5-12.2-4.7-2.2-9.4-4.5-14.1-6.7l-7.1-3.4c-2.4-1.2-4.5-2.2-6.6-3.2-8.2-4-16.3-8-24.4-12.2-5.2-2.7-10.6-5.4-15.5-8.7-.31-.2-.61-.43-.93-.66-.37.29-.74.57-1.14.79-.07.17-.15.31-.23.27-.07-.04.05-.15.19-.25.01-.01.02-.02.04-.03.09-.23.16-.53.17-.53,0-.27,0-.55-.16-.82,0,.04-.47-.52-.04-.17.06,0,.12.04.18.09,0,0,.01,0,.02,0,.34.2.66.42.97.64.31-.26.62-.52.93-.74,2.7-1.7,5.6-3.3,8.4-4.8,1.9-1,3.8-2,5.7-3,2-1.1,4.3-2.2,6-3.1,9.4-4.7,18.8-9.3,28.3-13.7,7.2-3.4,14.5-6.8,21.9-9.7.9-.4,1.9-.7,2.8-1l.22-.04-.22-.06s-.01,0-.02,0h-.01c-.29-.13.22-.07.32-.02h.01c.18-.02.32-.02,0,.03-.5.1.7-.1.2,0l-.28.06.58.14c.8.2,1.6.5,2.4.8,6,2,12,4.2,18,6.4,8.9,3.3,17.7,6.5,26.6,9.9,9.7,3.6,19.3,7.3,29,11,8.4,3.2,16.9,6.4,25.3,9.6l12.3,4.72,1.73.66c1.07-.84,2.12-1.66,3.17-2.48.1-.08.2-.14.31-.2h.02c.07-.05.14-.08.21-.11.02-.01.04-.02.06-.02.06-.03.12-.05.18-.06.06-.02.11-.04.17-.05-2.52-.95-5.03-1.91-7.55-2.86-7.2-2.8-14.5-5.6-21.8-8.3-9.5-3.6-19-7.2-28.4-10.8-9.5-3.6-19.1-7.2-28.7-10.8-7.5-2.8-15.1-5.6-22.6-8.2-2.4-.8-4.7-1.7-7.1-2.4-1.4-.6-2.9-.9-4.4-1-1.9.3-3.7.9-5.3,1.7-3.3,1.3-6.5,2.7-9.7,4.2-9.3,4.1-18.4,8.5-27.5,12.9-8.8,4.3-17.7,8.7-26.3,13.4-2.7,1.4-5.4,2.9-7.9,4.6-.54.39-1.23.83-1.81,1.36-.14.12-.27.25-.38.38-.7.75-1.09,1.66-.51,2.76.6,1.3,2.2,2.2,3.3,3,.47.31.95.61,1.43.9,1.11,1.02,2.28,1.98,3.57,2.9,5.7,4,11.6,7.7,17.8,10.9,8,4.4,16.2,8.6,24.4,12.6,8.9,4.4,17.9,8.7,27,12.8,8.3,3.8,16.6,7.5,25,11.1,6.4,2.7,12.7,5.4,19.2,8,1.9.7,3.8,1.5,5.7,2.1.9.3,2.2.9,3.2.6.6-.3,1.2-.6,1.7-1,1.1-.7,2.1-1.4,3.1-2,3.4-2.3,6.6-4.6,10-6.9,9.2-6.5,18.4-13.2,27.5-19.9l13.1-9.6c3.5-2.5,7.1-4.9,10.4-7.7,2.72-2.33,4.68-5.42,5.53-8.8h0c.02-.11.05-.2.07-.3.12-.36-.01-.8-.29-1.25ZM233.42,155.14h-.01s-.01-.01-.01-.01c-.02-.05-.04-.09-.04-.14.02.05.04.09.06.13t0,.02ZM233.46,155.29s-.01-.05-.02-.08c.01,0,.02.01.02.01h0v.02h.01s0,.03.01.04h0s0,.01,0,.03c.01.02.01.03.01.04-.01-.02-.02-.04-.04-.06Z"/>
        <path class="cls-1" d="M234.43,154.13c-.37.29-.74.57-1.14.79-.01,0-.03.02-.04.02.01-.01.02-.02.04-.03.09-.23.16-.53.17-.53,0-.27,0-.55-.16-.82,0,.04-.47-.52-.04-.17.06,0,.12.04.18.09,0,0,.01,0,.02,0,.34.2.66.42.97.64Z"/>
        <path class="cls-1" d="M308.96,117.99l-.28.06-.22-.06s-.01,0-.02,0h-.01c-.29-.13.22-.07.32-.02h.01c.18-.02.32-.02,0,.03-.5.1.7-.1.2,0Z"/>
        <path class="cls-1" d="M355.36,211.99h-.22s-.31.03-.44.08c.08-.05.25-.1.41-.14l.25.06Z"/>
        <path class="cls-1" d="M355.36,211.99c.6.2-.7,0,0,0h0Z"/>
        <path class="cls-1" d="M233.42,155.12s0,.01,0,.02h-.01s-.01-.01-.01-.01c-.02-.05-.04-.09-.04-.14.02.05.04.09.06.13Z"/>
        <path class="cls-1" d="M233.5,155.35s-.02-.04-.04-.06c0-.02-.01-.05-.02-.08.01,0,.02.01.02.01h0v.02h.01s0,.03.01.04h0s0,.01,0,.03c.01.02.01.03.01.04Z"/>
        <path class="cls-1" d="M430.66,162.59l-.19.15c-.06-.09-.13-.19-.2-.28-.99-1.31-3.05-2.48-3.41-1.27-.07.29-.15.57-.23.85l-.67-.25-1.37-.52c1.07-.84,2.12-1.66,3.17-2.48.3-.23.62-.37.95-.44,2.09-.43,4.37,2.17,1.95,4.24Z"/>
        <path class="cls-1" d="M379.56,14.99s2.5,1,1.9,3.4-3.9,1-4.1-.7.9-3.8,2.2-2.7Z"/>
        <path class="cls-1" d="M396.66,165.99l-9.6-4.1-22.9-9.8-27.8-11.9-24-10.2c-3.9-1.7-7.7-3.5-11.7-5l-.2-.1c-.9-.4-2.3-.3-2.5.8s1.1,2.2,2,2.6l9.6,4.1,22.9,9.8,27.8,11.9,24,10.3c3.9,1.7,7.7,3.5,11.7,5l.2.1c.9.4,2.3.3,2.5-.8s-1.1-2.3-2-2.7h0Z"/>
        <path class="cls-1" d="M385.06,175.49l-10-4.2-24-10-28.9-12.1-25.1-10.5c-4-1.7-8.1-3.5-12.2-5.1l-.2-.1c-.8-.4-1.9-.3-1.9.8s1.3,2.2,2.2,2.6l10,4.2,24,10,28.9,12.1,25.1,10.5c4.1,1.7,8.1,3.5,12.2,5.1l.2.1c.8.4,1.9.3,1.9-.8s-1.3-2.2-2.2-2.6h0Z"/>
        <path class="cls-1" d="M373.26,185.29l-10-4.2-24.1-10-29-12.1-25.3-10.5c-4.1-1.7-8.1-3.6-12.2-5.1l-.2-.1c-1.2-.4-2.5-.2-3.5.7-.5.4-.6,1.2-.2,1.7.2.2.4.4.7.4l10,4.2,24.1,10,29,12.1,25.3,10.5c4,1.7,8.1,3.6,12.2,5.1l.2.1c1.2.4,2.5.1,3.5-.7.5-.4.6-1.2.2-1.7-.2-.2-.4-.3-.7-.4h0Z"/>
        <path class="cls-1" d="M385.76,153.59l-15.6,9.9-24.8,15.8-5.7,3.6c-1,.7-.6,2.1.2,2.8,1,.8,2.4.9,3.5.2l15.6-9.9,24.7-15.8,5.7-3.6c1-.7.6-2.1-.2-2.8-1-.8-2.3-.9-3.4-.2h0Z"/>
        <path class="cls-1" d="M361.26,143.09l-14.2,8.3-22.5,13.2-5.2,3.1c-1.8,1,.9,5.3,2.7,4.2l14.2-8.3,22.5-13.2,5.2-3.1c1.8-1-.8-5.2-2.7-4.2h0Z"/>
        <path class="cls-1" d="M334.56,131.69l-14.9,8.5-23.6,13.6-5.5,3.1c-2.2,1.3,0,5.7,2.2,4.5l14.9-8.6,23.6-13.6,5.5-3.1c2.2-1.2,0-5.6-2.2-4.4h0Z"/>
      </g>
      <polygon class="cls-1" points="342.1 85.56 342.06 85.89 341.86 85.49 342.1 85.56"/>
      <polygon class="cls-1" points="342.1 85.56 342.06 85.89 341.86 85.49 342.1 85.56"/>
    </g>
    <g id="character">
      <path class="cls-1" d="M128.5,182.55s-.02,0-.03-.02c.01-.01,0-.02-.01-.04.01.02.03.04.04.06Z"/>
      <path class="cls-1" d="M74.82,196.32c-.06.05-.12.11-.16.17-1.2,1.6-2.3,3.3-3.4,4.9-3,4.4-6,8.8-8.8,13.3-4.1,6.4-8.1,12.9-11.9,19.4-4.5,7.7-8.9,15.6-12.9,23.6-4.2,8.3-8.2,16.8-11.6,25.5-3.3,8.2-6.1,16.6-8.1,25.2-1.9,7.4-2.7,15.1-2.4,22.8.24,3.85.88,7.71,2.14,11.34.62,1.81,1.4,3.56,2.36,5.23-9.39-9.71-23.95-32.35-14.2-73.97,7.88-33.65,32.09-70.85,59.33-96.4.51-.48,1.01-.95,1.52-1.41.19.57.39,1.14.6,1.7-.5.46-1,.93-1.49,1.4l9,17.24Z"/>
      <path class="cls-1" d="M294.52,327.42h-.09s.07,0,.09,0Z"/>
      <path class="cls-1" d="M181.36,320.79c-.6,1.1-1.2,2.2-1.7,3.3-.72,1.46-1.4,2.95-2.04,4.45-.08.18-.16.37-.24.56l-5.09.08c.07-.19.14-.38.22-.56.21-.55.42-1.09.65-1.63,1.2-3.3,2.7-6.5,4.4-9.6.2-.3,4.1,2.5,3.8,3.4Z"/>
      <path class="cls-1" d="M161.24,328.79c-.07.19-.13.37-.18.56l-5.31.08c.06-.19.12-.37.19-.56l5.3-.08Z"/>
      <path class="cls-1" d="M146.35,329.57l-3.64.05h-.63c.15-.18.3-.36.46-.54.17-.2.34-.4.52-.59.89-.89,2.09-.37,2.89.53.15.17.28.36.4.55Z"/>
      <path class="cls-1" d="M324.96,300.39c-.9-1.5-1.9-3-2.9-4.4-.18-.23-.35-.47-.52-.7-.5-.16-1.01-.32-1.52-.46-1.12-.33-2.23-.64-3.26-.94-9.7-2.5-19.7-4.3-29.7-5.4-12.2-1.5-24.6-2.4-37-2.9-12.9-.5-25.8-.6-38.7-.1-11.9.4-23.8,1.5-35.6,3.2-9.8,1.5-19.1,5.5-27,11.5-7.2,5.5-13.4,12.3-18.2,19.9-1.94,2.96-3.69,6.07-5.23,9.28-.09.17-.17.35-.25.52l-2.73.04-2.44.04-24.09.36-2.57.04c.08-.17.16-.34.25-.52,20.58-43.44,22.93-115.59,25.66-129.26,4.2-21-3.3-34.1-5.9-40.2-1.42-3.37-1.69-7.38-1.73-11.47-.01-.27-.01-.55-.01-.82.9-.27,1.79-.51,2.68-.72,1.68-.41,3.34-.73,4.97-.96.46.11.92.21,1.39.29.66.13,1.33.22,2.01.3.43,5.37.95,10.69,1.59,16.08.5,4.5,1.1,9,1.9,13.5.7,3.5,1.7,7.2,4.4,9.6,2.2,1.9,5.4,2.5,8.2,2.8,4.4.5,8.8.2,13.1-.8,4.9-1.1,9.5-3.2,13.5-6.1,2.1-1.6,4-3.5,5.6-5.7.4-.5.8-1.1,1.1-1.6.3-.4.7-1.6,1.1-1.9h0c.99-1.9,1.46-4.32,2.11-4.82.16-.11.33-.22.49-.33.3-.21.6-.42.9-.64,53.62,32.14,126.93,92.01,144.24,123.83.45.83.86,1.63,1.24,2.42,0,0,0,.03.02.04,1.2,2.5,2.16,4.84,2.9,7Z"/>
      <path class="cls-1" d="M294.52,327.42h-.09s.07,0,.09,0Z"/>
      <path class="cls-1" d="M97.46,154.29c-.02-.15-.04-.29-.05-.44-.07-.56-.12-1.12-.14-1.67-1.5.72-2.98,1.48-4.44,2.29.08.58.17,1.16.27,1.74.06.43.14.85.23,1.28,1.4-.85,2.82-1.67,4.25-2.46-.04-.25-.08-.49-.12-.74ZM124.57,145.99c-.11-.23-.24-.45-.38-.66-2.42-.01-4.82.18-7.2.52-.93.14-1.85.3-2.77.48-.9.17-1.8.37-2.7.6-.92.22-1.83.47-2.74.74v1.29c0,.3,0,.61.01.91.91-.34,1.82-.66,2.74-.95.89-.3,1.78-.57,2.68-.82.65-.18,1.3-.35,1.95-.51,1.43-.39,2.91-.65,4.4-.88-.47-.08-.93-.18-1.39-.29,1.83-.26,3.64-.4,5.4-.43ZM124.57,145.99c-.11-.23-.24-.45-.38-.66-2.42-.01-4.82.18-7.2.52-.93.14-1.85.3-2.77.48-.9.17-1.8.37-2.7.6-.92.22-1.83.47-2.74.74v1.29c0,.3,0,.61.01.91.91-.34,1.82-.66,2.74-.95.89-.3,1.78-.57,2.68-.82.65-.18,1.3-.35,1.95-.51,1.43-.39,2.91-.65,4.4-.88-.47-.08-.93-.18-1.39-.29,1.83-.26,3.64-.4,5.4-.43ZM124.57,145.99c-.11-.23-.24-.45-.38-.66-2.42-.01-4.82.18-7.2.52-.93.14-1.85.3-2.77.48-.9.17-1.8.37-2.7.6-.92.22-1.83.47-2.74.74v1.29c0,.3,0,.61.01.91.91-.34,1.82-.66,2.74-.95.89-.3,1.78-.57,2.68-.82.65-.18,1.3-.35,1.95-.51,1.43-.39,2.91-.65,4.4-.88-.47-.08-.93-.18-1.39-.29,1.83-.26,3.64-.4,5.4-.43ZM172.51,328.62c-.08.18-.15.37-.22.56-.06.15-.12.3-.17.46l3.24-.05,1.83-.03c.06-.16.12-.31.19-.46.08-.19.16-.38.24-.56l-5.11.08ZM111.52,148.1v-1.17c-.92.22-1.83.47-2.74.74v1.29c0,.3,0,.61.01.91.91-.34,1.82-.66,2.74-.95-.01-.27-.01-.55-.01-.82ZM146.35,329.57c-.12-.19-.25-.38-.4-.55l-3.41.06c-.16.18-.31.36-.46.55-.13.16-.26.32-.38.48h.9s.46-.02.46-.02h.31l3.21-.05c-.06-.16-.14-.32-.23-.47ZM68.72,174.15c-.16-.52-.31-1.04-.46-1.56-.06-.18-.11-.36-.16-.54-.68.6-1.36,1.21-2.04,1.83-.52.47-1.04.95-1.56,1.43-18.96,17.52-34.83,38.17-46.84,61.08-12.5,23.8-21.4,52-16.1,79.1,2.7,13.9,9.7,28,21.2,36.7.45.3.9.66,1.35.94,0,.01.02.01.02.01.14.1.29.18.43.25,1,.6,3.8,1.1,4.8.5l.64-.38s-.09-.08-.14-.12c-.32-.31-.63-.63-.94-.96l-.85.51-.8.46-.31.19s-.14-.09-.41-.26c-.28-.19-.69-.47-1.22-.87-1.24-.94-3.12-2.48-5.27-4.7-.96-1.67-1.74-3.42-2.36-5.23-2.79-3.7-5.12-7.75-6.94-12.04-10.1-23.1-6.2-50.3,2.4-73.3,9.7-25.8,25.5-49.5,44.3-69.6,2.69-2.93,5.48-5.77,8.36-8.51.49-.47.99-.94,1.49-1.4.65-.61,1.3-1.21,1.96-1.81-.19-.57-.37-1.14-.55-1.72ZM111.52,148.1v-1.17c-.92.22-1.83.47-2.74.74v1.29c0,.3,0,.61.01.91.91-.34,1.82-.66,2.74-.95-.01-.27-.01-.55-.01-.82ZM111.52,148.1v-1.17c-.92.22-1.83.47-2.74.74v1.29c0,.3,0,.61.01.91.91-.34,1.82-.66,2.74-.95-.01-.27-.01-.55-.01-.82ZM122.58,329.41l-2.45.04-8.27.14-15.79.22-2.57.04-2.31.03c-.08.18-.16.35-.24.53-.09.18-.17.37-.27.55l4.86-.08,17.92-.29,6.24-.11,2.42-.04,2.73-.04c.07-.18.15-.35.23-.51.08-.17.16-.35.25-.52l-2.75.04ZM111.52,148.1v-1.17c-.92.22-1.83.47-2.74.74v1.29c0,.3,0,.61.01.91.91-.34,1.82-.66,2.74-.95-.01-.27-.01-.55-.01-.82ZM111.52,148.1v-1.17c-.92.22-1.83.47-2.74.74v1.29c0,.3,0,.61.01.91.91-.34,1.82-.66,2.74-.95-.01-.27-.01-.55-.01-.82ZM155.94,328.87c-.07.19-.13.37-.19.56-.06.15-.11.31-.16.47l5.31-.09c.05-.15.1-.31.16-.46.05-.19.11-.37.18-.56l-5.3.08ZM111.52,148.1v-1.17c-.92.22-1.83.47-2.74.74v1.29c0,.3,0,.61.01.91.91-.34,1.82-.66,2.74-.95-.01-.27-.01-.55-.01-.82ZM124.57,145.99c-.11-.23-.24-.45-.38-.66-2.42-.01-4.82.18-7.2.52-.93.14-1.85.3-2.77.48-.9.17-1.8.37-2.7.6v1.17c0,.27,0,.55.01.82.89-.3,1.78-.57,2.68-.82.65-.18,1.3-.35,1.95-.51,1.43-.39,2.91-.65,4.4-.88-.47-.08-.93-.18-1.39-.29,1.83-.26,3.64-.4,5.4-.43ZM124.57,145.99c-.11-.23-.24-.45-.38-.66-2.42-.01-4.82.18-7.2.52-.93.14-1.85.3-2.77.48-.9.17-1.8.37-2.7.6v1.17c0,.27,0,.55.01.82.89-.3,1.78-.57,2.68-.82.65-.18,1.3-.35,1.95-.51,1.43-.39,2.91-.65,4.4-.88-.47-.08-.93-.18-1.39-.29,1.83-.26,3.64-.4,5.4-.43ZM124.57,145.99c-.11-.23-.24-.45-.38-.66-2.42-.01-4.82.18-7.2.52-.93.14-1.85.3-2.77.48-.9.17-1.8.37-2.7.6v1.17c0,.27,0,.55.01.82.89-.3,1.78-.57,2.68-.82.65-.18,1.3-.35,1.95-.51,1.43-.39,2.91-.65,4.4-.88-.47-.08-.93-.18-1.39-.29,1.83-.26,3.64-.4,5.4-.43ZM124.57,145.99c-.11-.23-.24-.45-.38-.66-2.42-.01-4.82.18-7.2.52-.93.14-1.85.3-2.77.48-.9.17-1.8.37-2.7.6v1.17c0,.27,0,.55.01.82.89-.3,1.78-.57,2.68-.82.65-.18,1.3-.35,1.95-.51,1.43-.39,2.91-.65,4.4-.88-.47-.08-.93-.18-1.39-.29,1.83-.26,3.64-.4,5.4-.43ZM124.57,145.99c-.11-.23-.24-.45-.38-.66-2.42-.01-4.82.18-7.2.52-.93.14-1.85.3-2.77.48-.9.17-1.8.37-2.7.6v1.17c0,.27,0,.55.01.82.89-.3,1.78-.57,2.68-.82.65-.18,1.3-.35,1.95-.51,1.43-.39,2.91-.65,4.4-.88-.47-.08-.93-.18-1.39-.29,1.83-.26,3.64-.4,5.4-.43ZM124.57,145.99c-.11-.23-.24-.45-.38-.66-2.42-.01-4.82.18-7.2.52-.93.14-1.85.3-2.77.48-.9.17-1.8.37-2.7.6v1.17c0,.27,0,.55.01.82.89-.3,1.78-.57,2.68-.82.65-.18,1.3-.35,1.95-.51,1.43-.39,2.91-.65,4.4-.88-.47-.08-.93-.18-1.39-.29,1.83-.26,3.64-.4,5.4-.43ZM124.57,145.99c-.11-.23-.24-.45-.38-.66-2.42-.01-4.82.18-7.2.52-.93.14-1.85.3-2.77.48-.9.17-1.8.37-2.7.6-.92.22-1.83.47-2.74.74v1.29c0,.3,0,.61.01.91.91-.34,1.82-.66,2.74-.95.89-.3,1.78-.57,2.68-.82.65-.18,1.3-.35,1.95-.51,1.43-.39,2.91-.65,4.4-.88-.47-.08-.93-.18-1.39-.29,1.83-.26,3.64-.4,5.4-.43ZM124.57,145.99c-.11-.23-.24-.45-.38-.66-2.42-.01-4.82.18-7.2.52-.93.14-1.85.3-2.77.48-.9.17-1.8.37-2.7.6-.92.22-1.83.47-2.74.74v1.29c0,.3,0,.61.01.91.91-.34,1.82-.66,2.74-.95.89-.3,1.78-.57,2.68-.82.65-.18,1.3-.35,1.95-.51,1.43-.39,2.91-.65,4.4-.88-.47-.08-.93-.18-1.39-.29,1.83-.26,3.64-.4,5.4-.43ZM97.46,154.29c-.02-.15-.04-.29-.05-.44-1.43.74-2.87,1.53-4.31,2.36.06.43.14.85.23,1.28,1.4-.85,2.82-1.67,4.25-2.46-.04-.25-.08-.49-.12-.74ZM85.81,160.77c-.2-.59-.38-1.18-.54-1.78-1.44.94-2.86,1.9-4.26,2.89.18.62.38,1.24.6,1.84.17.49.36.97.56,1.45,1.36-1.03,2.73-2.04,4.12-3.04-.17-.45-.33-.9-.48-1.36ZM124.57,145.99c-.11-.23-.24-.45-.38-.66-2.42-.01-4.82.18-7.2.52-.93.14-1.85.3-2.77.48-.9.17-1.8.37-2.7.6-.92.22-1.83.47-2.74.74v1.29c0,.3,0,.61.01.91.91-.34,1.82-.66,2.74-.95.89-.3,1.78-.57,2.68-.82.65-.18,1.3-.35,1.95-.51,1.43-.39,2.91-.65,4.4-.88-.47-.08-.93-.18-1.39-.29,1.83-.26,3.64-.4,5.4-.43Z"/>
      <path class="cls-1" d="M329.26,309.99c-.2-.7.1.5-.1-.2-.1-.2-.1-.3-.2-.5-.1-.3-.2-.6-.3-.9-.2-.7-.5-1.3-.7-1.9-.5-1.2-1-2.4-1.6-3.5l-.5-.9-.2-.4c.3.5.2.2.1.1-.29-.48-.48-.87-.77-1.34,0,0,0-.01,0-.02,0,0-.01-.03-.02-.04-.9-1.5-1.9-3-2.9-4.4-.18-.23-.35-.47-.52-.7-.5-.16-1.01-.32-1.52-.46-.35-.77-.71-1.52-1.06-2.24-.04-.08-.08-.14-.12-.22h0c-.4-.78-.81-1.55-1.24-2.31-2.92-5.25-6.36-10.21-10.24-14.87-12.5-15.6-27.3-29.6-42.3-42.8-17.6-15.6-36.1-30.2-55.4-43.7-9.35-6.6-23.23-15.61-33.1-21.59.3-.21.6-.42.9-.64.35-.25.68-.51,1.01-.78.01,0,.03-.02.04-.03,6.06-4.05,10.79-10.53,13.92-16.78.02-.05,0,0,0,0,.01-.03.02-.06.03-.08,2.8-5.8,2.6-12.9,2-19.1-.32-3.35-.82-6.69-1.46-10.01-.14-.82-.31-1.63-.48-2.44.46-.25.91-.51,1.36-.78.09.37.19.75.28,1.13.12.44.23.88.33,1.33,1.5,6.08,2.4,12.32,2.77,18.57.2,5.16-.1,10.62-2.36,15.3-.01.03-.02.07-.04.1-.8,1.8-1.8,3.5-3,4.9-2.38,4.03-5.44,7.58-9.06,10.42,0,0,.33.19,0,0,15.38,9.3,32.45,20.9,46.36,31.28,19.1,14.1,37.3,29.3,54.6,45.5,7.5,7.1,14.7,14.3,21.5,21.9,5.6,6.1,10.7,12.5,15.2,19.4,1.51,2.34,3.1,5.13,4.53,8.13,1.37,2.88,2.58,5.97,3.41,9.06h0c.69,2.58,1.12,5.15,1.16,7.62-.1-.37-.19-.74-.3-1.11Z"/>
      <path class="cls-1" d="M184.56,86.29c-3.2-14.8-11.1-29.2-24.7-36.7-16.7-9.2-37.9-7.7-54.6.6-17.9,8.8-31.6,25.2-37.9,44.1-3.4,10.4-4.7,21.4-3.7,32.3.69,9.62,3.5,19.04,8.15,27.52.09-.17.17-.35.27-.52.15-.25.32-.49.48-.73-1.4-2.34-2.55-4.84-3.4-7.47-3.3-9.6-4-20.4-3-30.5,2.1-20.2,12.1-38.7,27.7-51.6,14.6-11.9,33.9-18.1,52.6-14.6,8.4,1.5,16.4,4.9,22.8,10.7,2.6,2.3,4.9,5,6.8,7.9l.6,1c.3.5.3.4.5.8.2.4.4.7.6,1.1.1.2.2.4.3.6.03.05.05.08.07.11,0,.02.02.05.03.09.7,1.4,1.3,2.8,1.8,4.2l.15.39.02.05c.04.11.13.3.13.36l.4,1c.2.7.6,1.8.7,2.2.4,1.5.8,3,1.1,4.4.25,1.12.46,2.27.64,3.41.51-.17,1.01-.33,1.51-.46,0-.08-.03-.17-.05-.25Z"/>
      <path class="cls-1" d="M128.46,182.49s.02.03.01.04c.01.01.02.01.03.02-.01-.02-.03-.04-.04-.06Z"/>
      <path class="cls-1" d="M124.19,145.33c-.1-.15-.21-.3-.33-.44-.29-.39-.88-1.56-1.47-1.6l-.13-.2c0,.07.01.13.02.2-2.73-.06-5.43-.53-8.03-1.39-.95-.31-1.88-.68-2.79-1.09-.98-.44-1.94-.94-2.86-1.5.08.82.12,1.64.14,2.46.89.68,1.82,1.29,2.78,1.83.88.5,1.8.94,2.74,1.32.81.34,1.65.63,2.5.87.08.02.15.05.23.06.72.22,1.45.42,2.18.57,1.83-.26,3.64-.4,5.4-.43-.11-.23-.24-.45-.38-.66ZM184.42,86.59c-.16-.4-.31-.8-.47-1.2-.77-1.97-1.57-3.94-2.39-5.9-.15-.37-.3-.74-.45-1.11-1.24-3.08-2.57-6.22-3.95-9.29-.02-.04-.04-.08-.06-.12-.01,0-.01-.01-.01-.01-.01-.02-.02-.05-.03-.07-.3-.7-.6-1.3-.9-2-.88-1.69-2.14-3.14-3.67-4.26-.92-.67-1.94-1.23-3.03-1.64-5.1-2.1-11.1-2-16.5-1.5-6.7.7-13.4,2-19.9,3.9-5.9,1.6-11.7,3.6-17.4,5.7-3.2,1-6.3,2.3-9.4,3.7l-.5.2c-.5.2,1.5,3.1,1.7,3.4,4.3,5.6,6.9,12.6,9,19.3,1.8,5.7,3.2,11.6,4.3,17.5.16.89.32,1.78.49,2.73-3.34-3.86-7.9-6.78-13.19-5.53-5,1.2-8.4,5.6-9.2,10.5-.16.96-.21,1.93-.18,2.9.04,1.49.3,2.98.71,4.43.1.35.21.69.32,1.03.13.36.26.72.4,1.08.35.89.76,1.76,1.21,2.6.04-.11.09-.23.14-.34.14-.37.3-.75.5-1.11-.15-.54-.26-1.09-.33-1.65-.06-.34-.1-.69-.12-1.03-.02-.2-.03-.4-.03-.6-.02-.61,0-1.23.07-1.84,0-.06,0-.11.01-.17.3-4.6,3.1-8.7,7.3-10.6,5.3-2.4,11,.1,14.3,4.5.1.1,1.1,1.1,1,.7-1.6-11.7-4.8-23.2-9.7-34-1.55-3.32-3.32-6.53-5.34-9.6,5.96-2.61,12.1-4.75,18.24-6.8,11.1-3.6,22.9-6.9,34.7-6.7,4.57.09,9.63.77,13.37,3.63.59,1.39,1.12,2.77,1.73,4.07,1.98,4.78,3.89,9.56,5.7,14.34.02.04.03.07.04.1h0s.01.02.01.02c.14.37.28.71.41,1.08.05.12.09.24.14.36.06.18.13.35.19.53.36-.12.73-.22,1.11-.32-.11-.31-.23-.61-.34-.91Z"/>
      <path class="cls-1" d="M201.46,114.29c-2.16,1.79-4.51,3.32-6.97,4.63-.49.27-.99.52-1.49.76-3.85,1.9-7.94,3.33-12.04,4.51-4,1.1-8.1,2-12.2,2.6-.8.1-1.8-.2-1.3-1.2s2.1-1.4,3.1-1.5h.3l2.7-.5c1.3-.3,2.6-.6,3.9-.9l2.3-.6c.6-.2-.4.1.2-.1l.5-.1,1.3-.4c3.81-1.17,7.4-2.41,10.76-4.25.46-.25.91-.51,1.36-.78,1.61-.98,3.17-2.11,4.68-3.47,5-4.5,7.4-11.4,5.1-17.8-2.3-6.4-9-8.9-15.3-8.3-1.23.1-2.43.31-3.6.61-.38.1-.75.2-1.11.32-1.88.59-3.68,1.42-5.39,2.47-4.1,2.4-7.7,5.7-10.6,9.6-.8.9-1.9,1.4-3.1,1.5-.6.1-2-.2-1.3-1.1,4.9-6.51,11.79-11.96,19.6-14.56,0,0,.01-.01.02-.01.35-.12.71-.23,1.07-.33.13-.05.25-.08.38-.12,2.41-.68,4.89-1.09,7.43-1.18,7.4-.2,15.1,3,17.1,10.6,2,7.6-1.5,14.7-7.4,19.6Z"/>
      <path class="cls-1" d="M186.76,129.99c-.1.4-.3.8-.6,1.1-.4.3-.8.6-1.3.7-.2.1-.4.1-.6.2l.4-.1c-.22.08-.45.21-.63.31l.23-.11c-.3.2-.5.3-.7.5l.4-.3c-.22.15-.39.36-.55.53-.1.15-.2.31-.3.49,0,.01-.02.03-.03.05,0,0-.01.01-.01.02-.07.17-.14.37-.21.51-.2.4-.5.8-.7,1-.4.2-.8.4-1.3.4-.2,0-.4,0-.6-.1-.5-.3-.7-.9-.4-1.4,0-.2.1-.3.1-.4,1-2.2,2.9-3.9,5.3-4.4.3-.1.8-.1,1.1.1.3.2.5.5.4.9Z"/>
      <path class="cls-1" d="M160.36,94.09c-2-2.7,1-4.5,1-4.5.1,0,.2,0,.3-.1,1.4-.3,2.7.6,3,2,1,2.8-2.3,5.3-4.3,2.6Z"/>
      <path class="cls-1" d="M139.16,100.89c-1.9-2.7,1-4.5,1-4.5.1,0,.2-.1.3-.1,1.4-.3,2.7.6,3,2,1,2.8-2.4,5.3-4.3,2.6Z"/>
      <path class="cls-1" d="M111.52,143.6c.01,1.1,0,2.21,0,3.33v1.17c-.91.26-1.82.55-2.74.86v-1.29c.02-1.39.02-2.78-.02-4.18,0-.57-.01-1.14-.02-1.72-.02-.82-.06-1.64-.14-2.46-.19-2.11-.6-4.19-1.44-6.12-.6-1.5-1.5-2.7-2.7-3.7-.33-.25-.73-.49-1.14-.62-.02,0-.04.01-.06.02l-.2.1-.4.2-.24.16c.42.34.6.68.34.94-.32.37-.58.78-.8,1.19-.2.36-.36.74-.5,1.11-.05.11-.1.23-.14.34-.54,1.29-1,2.57-1.46,3.86-1.68,5.03-2.89,10.13-2.59,15.39.02.55.07,1.11.14,1.67-1.43.74-2.87,1.53-4.31,2.36-.1-.58-.19-1.16-.27-1.74-.51-3.7-.62-7.42.13-11.18.7-3.2,1.5-6.3,2.6-9.3.42-1.25.88-2.74,1.6-4-.4-1.6-1.1-3.3-2.6-4.2-.3-.1-.5-.2-.7-.3h0c-1.13.48-2.25,1.15-3.19,2-.19.12-.4.23-.61.33-.36.65-.68,1.34-.99,1.97-4.32,8.91-6.39,19.54-3.79,29.2.16.6.34,1.19.54,1.78-1.4.94-2.8,1.92-4.2,2.95-.22-.6-.42-1.22-.6-1.84-.83-2.76-1.31-5.62-1.45-8.49-.1-6.2.9-12.3,3.1-18.1.82-2.46,1.97-4.92,3.23-7.22-.06-.05-.11-.11-.13-.18-.4-1.1-1.1-1.9-2.1-2.4-.1-.06-.2-.11-.29-.15-.21.14-.41.32-.61.45-2.2,1.9-3.3,5-4.2,7.7-.8,2.9-1.6,5.7-2.1,8.6-.7,3.6-1.4,7.3-1.8,10.9-.02.06-.05.11-.09.15.09,2.68.09,5.37.09,8.05,0,1.2-1.5,2-2.5,2.2s-2.4-.3-2.4-1.5c0-1.77-.04-3.54-.07-5.31-1.2,1.44-2.02,3.19-2.33,5.11-.47,3.42-.23,7.01.74,10.36.05.18.1.36.16.54.15.52.3,1.04.46,1.56-.67.6-1.34,1.21-2.01,1.83-.24-.7-.46-1.4-.65-2.1-2.28-7.83-2.43-15.61,3.61-19.53.53-.35,1.12-.67,1.76-.95.23-.11.48-.21.73-.31,0,0,.03-.27.1-.75h0c.03-.3.08-.66.14-1.08.64-4.53,2.51-16.32,5.46-22.07,3.2-6.23,7.82-5.57,9.72-3.15.3.38.53.8.68,1.25,0,0,.75-.68,1.88-1.4,2.56-1.61,7.08-3.39,9.17,2.32.13.33.24.69.35,1.08,0,0,.02-.01.05-.04.13-.1.53-.41,1.12-.72.19-.11.41-.22.65-.33,2.28-1,6.18-1.49,8.68,4.99.86,2.24,1.19,4.85,1.3,7.62.04.91.06,1.85.06,2.79Z"/>
      <path class="cls-1" d="M122.26,178.19c-1-5.2-2.7-10.3-4.9-15.2-1.1-2.1-1.9-4.3-2.4-6.6-.43-2.7-.71-5.5-.75-8.29-.01-.24-.01-.48-.01-.72,0-.35,0-.7.02-1.05,0-.45.02-.9.04-1.34v-.07c0-1,.01-2.01-.01-3.02-.02-2.6-.14-5.21-.79-7.71-.7-2.8-2.2-5.9-5-7-1.92-.81-4.35-.78-6.57-.16-.11-.23-.22-.45-.34-.67-.56-1-1.31-1.86-2.39-2.37-.15-.07-.31-.14-.48-.2-1.86-.65-4.29-.36-6.22.1-.92.24-1.83.56-2.7.98-1.25-1.06-3.05-1.45-4.8-1.38-3.8,0-7.3,2.2-9,5.7-1.4,2.9-2.4,5.9-3.1,9-.8,3.2-1.4,6.4-1.9,9.7-.08.49-.17.99-.24,1.48h0c-.11.68-.22,1.35-.32,2.02h0c-.03.28-.07.56-.11.83h0c-.03.29-.07.55-.1.83-.17.07-.34.15-.51.23-2.87,1.36-5.16,3.82-6.22,6.81-1.2,3.5-.9,7.4-.1,10.9.31,1.45.69,2.89,1.14,4.32.21.7.44,1.39.69,2.08.2.57.41,1.13.63,1.69.49-.47.99-.94,1.49-1.4.65-.61,1.3-1.21,1.96-1.81-.19-.57-.37-1.14-.55-1.72-.16-.52-.31-1.04-.46-1.56-.06-.18-.11-.36-.16-.54-.97-3.35-1.21-6.94-.74-10.36.31-1.92,1.13-3.67,2.33-5.11,1.13-1.35,2.58-2.42,4.27-3.09.16-.08.45-.16.61-.35.04-.04.07-.09.09-.15.4-3.6,1.1-7.3,1.8-10.9.5-2.9,1.3-5.7,2.1-8.6.9-2.7,2-5.8,4.2-7.7.2-.13.4-.31.61-.45.09.04.19.09.29.15,1,.5,1.7,1.3,2.1,2.4.02.07.07.13.13.18.44.37,1.72.22,2.07.22.68,0,1.42-.17,2.09-.47.21-.1.42-.21.61-.33.94-.85,2.06-1.52,3.19-2h0c.2.1.4.2.7.3,1.5.9,2.2,2.6,2.6,4.2.2.6,1.8.4,2.2.4.24,0,.5-.02.75-.06.52-.09,1.04-.26,1.52-.5.15-.07.29-.15.43-.24l.36-.24.24-.16.4-.2.2-.1s.04-.02.06-.02c.41.13.81.37,1.14.62,1.2,1,2.1,2.2,2.7,3.7.84,1.93,1.25,4.01,1.44,6.12.08.82.12,1.64.14,2.46.01.58.02,1.15.02,1.72.04,1.4.04,2.79.02,4.18v1.29c0,.3,0,.61.01.91,0,1.65.03,3.3.17,4.92.3,2.8,1.1,5.5,2.3,8.1.9,1.9,1.7,3.8,2.5,5.7,2.2,5.6,3.6,11.6,3.9,17.6.2,4,0,8-.6,12-.2,1.6-.6,3.1-.8,4.7-.3,1.9-.5,3.7-.7,5.6-.6,5.7-1.2,11.5-1.7,17.2-.8,7.7-1.6,15.4-2.6,23.1-1.1,8.8-2.5,17.7-4.1,26.4-1.7,9-3.6,18-6,26.9-2.3,8.5-5.2,16.8-8.7,24.9-.41.97-.82,1.93-1.27,2.89-.08.18-.16.35-.24.53-.09.18-.17.37-.27.55-2.74,5.74-6.09,11.18-9.92,16.23-4.1,5.2-9.3,10-15.2,12.8-.6.3-1.4.6-2.1.9l-1.1.4-.4.1-.5.1-1.1.3-.6.1c-.06.01-.11.02-.14.02.03-.01.03-.02-.06-.02l-1.2.2-.6.1h.2c-.1,0-.3,0-.4.1l-1.2.1h-2.8c-1.7,0-3.4-.2-5.1-.5-6.74-1.09-13.38-3.65-18.46-8.38-.05-.03-.09-.08-.14-.12-.32-.31-.63-.63-.94-.96l-.85.51-.8.46-.31.19s-.14-.09-.41-.26c-.28-.19-.69-.47-1.22-.87-1.24-.94-3.12-2.48-5.27-4.7.31.55.64,1.1,1,1.63.92,1.33,1.94,2.58,3.05,3.74,0,.01.02.01.02.01,3.46,3.63,7.79,6.36,12.63,7.95,7.6,2.7,15.8,3.4,23.8,1.9,6.9-1.4,13.4-4.6,18.7-9.3,5.5-5,10.1-11,13.6-17.6.93-1.71,1.83-3.45,2.68-5.21.1-.18.19-.37.28-.55.08-.17.17-.34.25-.52,2.69-5.62,5.01-11.44,6.89-17.32,2.9-8.8,5.3-17.8,7.2-26.9,2-9.1,3.6-18.3,4.9-27.5,1.2-8.4,2.3-16.7,3.2-25.1.7-6.7,1.4-13.5,2.1-20.2.4-4.1.7-8.3,1.5-12.4,1.5-7.3,1.6-14.8.4-22.2ZM102.96,128.79s-.02.02-.03.02c.03-.01.07-.02.13-.02-.1,0,0-.1-.1,0Z"/>
      <path class="cls-1" d="M102.76,130.29c-.32.37-.58.78-.8,1.19-.2.36-.36.74-.5,1.11-.05.11-.1.23-.14.34-.54,1.29-1,2.57-1.46,3.86-1.68,5.03-2.89,10.13-2.59,15.39.02.55.07,1.11.14,1.67.01.15.03.29.05.44.04.25.08.49.12.74.68,4.33,1.54,8.5,2.68,12.66.3,1.2-4.4.4-4.8-.8-.5-1.9-1-3.9-1.4-5.8-.26-1.2-.52-2.4-.73-3.6-.09-.43-.17-.85-.23-1.28-.1-.58-.19-1.16-.27-1.74-.51-3.7-.62-7.42.13-11.18.7-3.2,1.5-6.3,2.6-9.3.42-1.25.88-2.74,1.6-4,.31-.56.67-1.07,1.1-1.5.22-.22.6-.3,1.05-.28.02,0,.05,0,.08.01.44.02.95.14,1.44.31.23.08.47.17.68.27.36.17.67.36.91.55.42.34.6.68.34.94Z"/>
      <path class="cls-1" d="M74.66,161.19c0,1.2-1.5,2-2.5,2.2s-2.4-.3-2.4-1.5c0-1.77-.04-3.54-.07-5.31-.01-.74-.02-1.49-.02-2.23-.01-.29-.01-.57-.01-.86,0-.07.01-.14.02-.21.06-.41.29-.76.61-1.05h0c.11-.11.24-.21.38-.3.33-.24.71-.41,1.07-.53.14-.05.29-.08.42-.11.08-.02.16-.03.24-.03.97-.09,2.16.42,2.16,1.53,0,.12.01.23.01.35.09,2.68.09,5.37.09,8.05Z"/>
      <path class="cls-1" d="M90.36,127.29c-.11.17-.21.35-.31.53-.36.65-.68,1.34-.99,1.97-4.32,8.91-6.39,19.54-3.79,29.2.16.6.34,1.19.54,1.78.15.46.31.91.48,1.36.09.22.18.44.27.66.7,1.9-3.6,4.3-4.3,2.6-.03-.07-.06-.15-.09-.22-.2-.48-.39-.96-.56-1.45-.22-.6-.42-1.22-.6-1.84-.83-2.76-1.31-5.62-1.45-8.49-.1-6.2.9-12.3,3.1-18.1.82-2.46,1.97-4.92,3.23-7.22.12-.23.24-.46.37-.68.32-.58.77-1.04,1.32-1.35.49-.29,1.06-.45,1.68-.45.36,0,.66.11.88.3.41.33.54.89.22,1.4Z"/>
      <path class="cls-1" d="M294.52,327.42h-.09s.07,0,.09,0Z"/>
      <path class="cls-1" d="M177.56,317.39c-1.7,3.1-3.2,6.3-4.4,9.6-.23.54-.44,1.08-.65,1.63l5.11-.08c.64-1.5,1.32-2.99,2.04-4.45.5-1.1,1.1-2.2,1.7-3.3.3-.9-3.6-3.7-3.8-3.4ZM177.56,317.39c-1.7,3.1-3.2,6.3-4.4,9.6-.23.54-.44,1.08-.65,1.63l5.11-.08c.64-1.5,1.32-2.99,2.04-4.45.5-1.1,1.1-2.2,1.7-3.3.3-.9-3.6-3.7-3.8-3.4ZM177.56,317.39c-1.7,3.1-3.2,6.3-4.4,9.6-.23.54-.44,1.08-.65,1.63l5.11-.08c.64-1.5,1.32-2.99,2.04-4.45.5-1.1,1.1-2.2,1.7-3.3.3-.9-3.6-3.7-3.8-3.4ZM328.4,303.49h0c-2.9-6.1-6.24-10.1-6.24-10.1-.04-.01-.08-.03-.12-.04-1.02-.33-2.09-.66-3.2-.98h0c-31.97-9.25-100.58-12.73-144.98-5.78-26.14,4.09-43.07,24.91-51.28,42.82-.08.17-.16.35-.23.52-.09.17-.16.34-.23.51-5.84,13.17-6.9,24.55-3.36,26.15,7.17,3.24,17.7-14.87,23.49-23.22.74-1.08,1.41-2,1.98-2.68.19-.23.36-.43.53-.6,0,0-.04.32-.11.9-.09.81-.23,2.14-.37,3.81-.88,10.47-1.68,34.24,10.12,27.42.18-.1.37-.21.56-.33,0,0,.36.52,1.01,1.23,2.26,2.48,7.98,7.26,13.86.45.15-.16.29-.33.43-.51.19-.23.37-.47.54-.72.09-.11.18-.23.26-.35,0,0,.17.38.54.9.22.33.52.71.89,1.09h.01c.06.08.13.14.19.2,1.85,1.76,5.3,3.33,10.67-.79,9.23-7.09,6.03-17.66,11.56-22.28.4-.35.84-.65,1.34-.92,0,0,.76.28,2.17.77,12.92,4.47,80.27,26.29,114.53,7.63,25.06-13.65,21.07-33.3,15.44-45.1ZM327.66,331.89c-4,7.3-11.3,12.6-18.8,16.1-13.5,6.2-29.5,6.5-44.1,5.4-15.2-1.3-30.2-4-44.9-8-7.63-1.98-15.27-4.46-22.9-7.03,0,0-.01,0-.01,0-.62-.47-1.34-.65-1.99-.26-5.3,2.9-5.4,9.7-7.1,14.8-1,3.2-2.9,6-5.5,8.2-1.4,1.2-3,2.1-4.8,2.5-1,.2-2,.1-2.9-.3-.06,0-.18-.07-.24-.11,0,0,.02,0,.04.01.2.1-.2-.2-.2-.2-.15-.08-.42-.33-.35-.3-.12-.12-.21-.26-.35-.4-.04-.04-.07-.07-.1-.1,0,0,0-.01-.01-.01-.03-.06-.06-.1-.09-.13l-.02-.02h-.01s-.47-.64-.47-.64c-.02-.02-.03-.04-.04-.05,0,0-.01,0-.01-.01-.15-.24-.36-.5-.6-.75-1.32-6.36-.51-13.05,1.05-19.29,1.01-3.98,2.34-7.91,3.93-11.73.06-.16.12-.31.19-.46.08-.19.16-.38.24-.56.64-1.5,1.32-2.99,2.04-4.45.5-1.1,1.1-2.2,1.7-3.3.3-.9-3.6-3.7-3.8-3.4-1.7,3.1-3.2,6.3-4.4,9.6-.23.54-.44,1.08-.65,1.63-.08.18-.15.37-.22.56-.06.15-.12.3-.17.46-2.19,5.89-3.55,12.01-4.16,18.35-.4,4.2.1,8.4,1.3,12.4.02.04.05.08.07.12-2.29,3.04-5.5,5.32-9.17,3.48-.5-.3-1-.6-1.5-1-.06-.06-.17-.13-.26-.19.62-.34.96-.92.66-1.71-2.6-7-2.2-14.7-.7-21.9.67-3.16,1.52-6.3,2.54-9.38.05-.15.1-.31.16-.46.05-.19.11-.37.18-.56l-5.3.08c-.07.19-.13.37-.19.56-.06.15-.11.31-.16.47-2.04,6.14-3.25,12.58-3.43,19.09-.08,3.74.41,7.4,1.42,10.93-.97.73-2.2,1.18-3.42,1.27h-.5q-.2,0-.4-.1c-.1-.1-.2-.1-.3-.1-.06-.02-.08-.02-.08,0-.04-.03-.08-.05-.12-.09-.4-.2.1,0,.1,0-.09-.18-.34-.36-.46-.47-.01,0-.01-.01-.02-.02-.07-.1-.14-.23-.22-.31-.05-.05-.08-.1-.1-.16-.03-.03-.06-.08-.1-.14-.2-.3-.3-.6-.4-.9-.09-.28-.18-.55-.36-.91h0c-.06-.2-.18-.58-.24-.69-.2-.7-.3-1.5-.5-2.2s-.2-1.6-.3-2.4c-.1-.6,0-.2-.1-.8,0-.4-.1-.9-.1-1.3-.1-1.8-.1-3.5-.1-5.3,0-3.1.2-6.2.4-9.4.1-1.6.3-3.2.5-4.8.04-.33-.03-.69-.17-1.05h-.01c-.06-.16-.14-.32-.23-.47-.12-.19-.25-.38-.4-.55-.8-.9-2-1.42-2.89-.53-.18.19-.35.39-.52.59-.16.18-.31.36-.46.55-.13.16-.26.32-.38.48h-.01c-1.68,2.15-3.12,4.56-4.63,6.78-2.5,4-5.3,7.8-8.3,11.4-1.3,1.6-2.7,3-4.3,4.3-1.1,1-2.5,1.8-4,2.1l-.5.1h-.8c-.01-.06-.02-.11-.03-.15-.03-.13-.05-.19-.05-.19-.07-.29-.12-.57-.12-.86,0-.11-.01-.23-.02-.32.01.03.01.07.02.12,0-.3,0-.5-.1-.8,0-1.1,0-2.3.1-3.4,0-.3.1-.6.1-.9v-.1c0-.1.1-.4.1-.5.1-.7.2-1.4.4-2.1.3-1.5.7-3.1,1.2-4.6,1.12-3.62,2.49-7.16,4.09-10.59.07-.18.15-.35.23-.51.08-.17.16-.35.25-.52,1.54-3.21,3.29-6.32,5.23-9.28,4.8-7.6,11-14.4,18.2-19.9,7.9-6,17.2-10,27-11.5,11.8-1.7,23.7-2.8,35.6-3.2,12.9-.5,25.8-.4,38.7.1,12.4.5,24.8,1.4,37,2.9,10,1.1,20,2.9,29.7,5.4,1.03.3,2.14.61,3.26.94.51.14,1.02.3,1.52.46.17.23.34.47.52.7,1,1.4,2,2.9,2.9,4.4.01.01.02.03.02.04,0,.01,0,.02,0,.02.29.47.48.86.77,1.34.1.1.2.4-.1-.1l.2.4.5.9c.6,1.1,1.1,2.3,1.6,3.5.2.6.5,1.2.7,1.9.1.3.2.6.3.9.1.2.1.3.2.5.2.7-.1-.5.1.2.11.37.2.74.3,1.11v.02c.26,1.02.48,2.05.7,3.07.6,2.9.7,5.9.3,8.8-.4,3.1-1.4,6.1-2.9,8.9ZM177.56,317.39c-1.7,3.1-3.2,6.3-4.4,9.6-.23.54-.44,1.08-.65,1.63l5.11-.08c.64-1.5,1.32-2.99,2.04-4.45.5-1.1,1.1-2.2,1.7-3.3.3-.9-3.6-3.7-3.8-3.4ZM177.56,317.39c-1.7,3.1-3.2,6.3-4.4,9.6-.23.54-.44,1.08-.65,1.63l5.11-.08c.64-1.5,1.32-2.99,2.04-4.45.5-1.1,1.1-2.2,1.7-3.3.3-.9-3.6-3.7-3.8-3.4Z"/>
      <path class="cls-1" d="M334.36,317.09c-.9-6.6-3.2-12.9-6.7-18.5-.85-1.44-1.7-2.81-2.67-4.17-.17-.24-.35-.49-.53-.73-.4-.5-.8-1-1.2-1.5-.67-.67-1.56-1.01-2.46-1.26-.31-.09-.63-.16-.94-.24-.75-.22-1.5-.43-2.26-.63-7.58-2.09-15.32-3.67-23.14-4.67-22.3-3.2-44.9-4.7-67.5-4.5-11.6,0-23.2.4-34.8,1.4-5.2.5-10.5,1-15.7,1.7-4.8.6-9.5,1.7-14,3.2-16.1,5.8-28.9,18.2-37.5,32.9-1.81,3.02-3.42,6.15-4.83,9.36-.08.17-.15.34-.22.52-.08.17-.15.34-.21.51-1.21,2.84-2.25,5.74-3.14,8.71-1.3,4.5-2.5,9.7-1.6,14.4.3,2,1.3,3.8,2.8,5,2.5,1.7,5.6,1,8-.5,3.3-2.1,5.9-5.3,8.2-8.3,2.6-3.4,5-6.9,7.3-10.5.21-.34.41-.68.64-1.02-.09,1.85-.14,3.69-.14,5.52-.1,3.8.2,7.6.8,11.3.6,3.1,1.6,6.6,4,8.9,2.51,2.42,5.54,2.37,8.39,1.02,1.43,1.56,3.13,2.83,5.11,3.78,1.9.9,4.1,1.1,6.1.6,2.14-.61,3.87-2.04,5.32-3.7,2.38,2.42,5.83,3.65,9.28,2.4,3.9-1.6,7.2-4.4,9.2-8.2,1.5-3.1,2.6-6.3,3.3-9.7.76-2.84,1.52-5.69,4.15-7.33,8.36,2.95,16.81,5.52,25.45,7.63,17.6,4.5,35.9,7.9,54.2,8,18.3.1,39-3.6,51.1-18.7,5.1-6.4,7.3-14.6,6.2-22.7ZM330.56,322.99c-.4,3.1-1.4,6.1-2.9,8.9-4,7.3-11.3,12.6-18.8,16.1-13.5,6.2-29.5,6.5-44.1,5.4-15.2-1.3-30.2-4-44.9-8-7.63-1.98-15.27-4.46-22.9-7.03,0,0-.01,0-.01,0-.62-.47-1.34-.65-1.99-.26-5.3,2.9-5.4,9.7-7.1,14.8-1,3.2-2.9,6-5.5,8.2-1.4,1.2-3,2.1-4.8,2.5-1,.2-2,.1-2.9-.3-.06,0-.18-.07-.24-.11,0,0,.02,0,.04.01.2.1-.2-.2-.2-.2-.15-.08-.42-.33-.35-.3-.12-.12-.21-.26-.35-.4-.04-.04-.07-.07-.1-.1,0,0,0-.01-.01-.01-.03-.06-.06-.1-.09-.13l.02.04s-.04-.04-.05-.06h0s-.47-.64-.47-.64c-.02-.02-.03-.04-.04-.05,0,0-.01,0-.01-.01-.15-.24-.36-.5-.6-.75-.79-.81-1.94-1.45-2.65-.39-.08.11-.16.22-.23.32-2.29,3.04-5.5,5.32-9.17,3.48-.5-.3-1-.6-1.5-1-.06-.06-.17-.13-.26-.19-.02-.02-.04-.03-.06-.03-.03-.04-.06-.06-.08-.08l-.7-.7c-.3-.4-.6-.8-1-1.1.4.4.3.4,0,0-.6-.8-1.8-1.8-2.8-1.1-.06.05-.12.09-.18.13-.97.73-2.2,1.18-3.42,1.27h-.5q-.2,0-.4-.1c-.1-.1-.2-.1-.3-.1-.06-.02-.08-.02-.08,0-.04-.03-.08-.05-.12-.09-.4-.2.1,0,.1,0-.09-.18-.34-.36-.46-.47-.01,0-.01-.01-.02-.02-.07-.1-.14-.23-.22-.31-.05-.05-.08-.1-.1-.16-.03-.03-.06-.08-.1-.14-.2-.3-.3-.6-.4-.9-.09-.28-.18-.55-.36-.91h0c-.06-.2-.18-.58-.24-.69-.2-.7-.3-1.5-.5-2.2s-.2-1.6-.3-2.4c-.1-.6,0-.2-.1-.8,0-.4-.1-.9-.1-1.3-.1-1.8-.1-3.5-.1-5.3,0-3.1.2-6.2.4-9.4.1-1.6.3-3.2.5-4.8.04-.33-.03-.69-.17-1.05h-.01c-.06-.16-.14-.32-.23-.47-.12-.19-.25-.38-.4-.55-.8-.9-2-1.42-2.89-.53-.18.19-.35.39-.52.59-.16.18-.31.36-.46.55-.13.16-.26.32-.38.48h-.01c-1.68,2.15-3.12,4.56-4.63,6.78-2.5,4-5.3,7.8-8.3,11.4-1.3,1.6-2.7,3-4.3,4.3-1.1,1-2.5,1.8-4,2.1l-.5.1h-.8c-.01-.06-.02-.11-.03-.15-.03-.13-.05-.19-.05-.19-.07-.29-.12-.57-.12-.86,0-.11-.01-.23-.02-.32.01.03.01.07.02.12,0-.3,0-.5-.1-.8,0-1.1,0-2.3.1-3.4,0-.3.1-.6.1-.9v-.1c0-.1.1-.4.1-.5.1-.7.2-1.4.4-2.1.3-1.5.7-3.1,1.2-4.6,1.12-3.62,2.49-7.16,4.09-10.59.07-.18.15-.35.23-.51.08-.17.16-.35.25-.52,1.54-3.21,3.29-6.32,5.23-9.28,4.8-7.6,11-14.4,18.2-19.9,7.9-6,17.2-10,27-11.5,11.8-1.7,23.7-2.8,35.6-3.2,12.9-.5,25.8-.4,38.7.1,12.4.5,24.8,1.4,37,2.9,10,1.1,20,2.9,29.7,5.4,1.03.3,2.14.61,3.26.94.51.14,1.02.3,1.52.46.17.23.34.47.52.7,1,1.4,2,2.9,2.9,4.4.01.01.02.03.02.04,0,.01,0,.02,0,.02.29.47.48.86.77,1.34.1.1.2.4-.1-.1l.2.4.5.9c.6,1.1,1.1,2.3,1.6,3.5.2.6.5,1.2.7,1.9.1.3.2.6.3.9.1.2.1.3.2.5.2.7-.1-.5.1.2.11.37.2.74.3,1.11v.02c.26,1.02.48,2.05.7,3.07.6,2.9.7,5.9.3,8.8Z"/>
      <path class="cls-1" d="M161.24,328.79c-.07.19-.13.37-.18.56-.06.15-.11.31-.16.46-1.02,3.08-1.87,6.22-2.54,9.38-1.5,7.2-1.9,14.9.7,21.9.3.79-.04,1.37-.66,1.71-.64.37-1.58.49-2.43.32-.64-.13-1.22-.42-1.57-.9-.1-.13-.18-.27-.24-.43-.21-.62-.41-1.24-.58-1.87-1.01-3.53-1.5-7.19-1.42-10.93.18-6.51,1.39-12.95,3.43-19.09.05-.16.1-.32.16-.47.06-.19.12-.37.19-.56l5.3-.08Z"/>
      <path class="cls-1" d="M181.36,320.79c-.6,1.1-1.2,2.2-1.7,3.3-.72,1.46-1.4,2.95-2.04,4.45-.08.18-.16.37-.24.56-.07.15-.13.3-.19.46-1.59,3.82-2.92,7.75-3.93,11.73-1.56,6.24-2.37,12.93-1.05,19.29.19.98.44,1.95.75,2.91.08.3-.83-.26-1.36-.6-.16-.1-.29-.18-.34-.2-.16-.11-.32-.22-.46-.35-.62-.51-1.08-1.14-1.47-1.83-.02-.04-.05-.08-.07-.12-1.2-4-1.7-8.2-1.3-12.4.61-6.34,1.97-12.46,4.16-18.35.05-.16.11-.31.17-.46.07-.19.14-.38.22-.56.21-.55.42-1.09.65-1.63,1.2-3.3,2.7-6.5,4.4-9.6.2-.3,4.1,2.5,3.8,3.4Z"/>
    </g>
  </g>
</svg>