<?xml version="1.0" encoding="UTF-8"?>
<svg id="Layer_2" data-name="Layer 2" xmlns="http://www.w3.org/2000/svg" viewBox="0 0 96.75 113.96">
  <g id="Layer_1-2" data-name="Layer 1">
    <g>
      <path d="M11.97,113.96v-5.97h-6.01v-54.02H0v-6.01h5.97v-6.01h6.01v-5.97h6.01v11.98h18.02v6.01h-18.02v54.02h12.01v5.97H11.97ZM29.99,108v-6.01h6.01v6.01h-6.01Z"/>
      <path d="M48.73,113.96v-5.97h-6.01v-6.01h-6.01v-12.01h-5.97v-17.98h5.97v-12.01h6.01v-6.01h6.01v-6.01h23.99v6.01h-17.98v6.01h-6.01v12.01h-6.01v17.98h6.01v12.01h6.01v6.01h17.98v5.97h-23.99ZM78.73,113.96v-5.97h-6.01v-6.01h6.01v-42h-6.01v-6.01h6.01V17.98h-6.01v-6.01h6.01v-6.01h6.01V0h6.01v108h6.01v5.97h-18.02Z"/>
    </g>
  </g>
</svg>